<svg width="14" height="14" viewBox="0 0 14 14" fill="none" xmlns="http://www.w3.org/2000/svg">
<g clip-path="url(#clip0_2626_31323)">
<path d="M9.33203 7.58503L12.3788 9.6162C12.4227 9.64543 12.4737 9.6622 12.5264 9.66472C12.5791 9.66724 12.6315 9.65542 12.678 9.63052C12.7245 9.60561 12.7634 9.56856 12.7905 9.52331C12.8177 9.47806 12.832 9.42629 12.832 9.37353V4.59253C12.832 4.54121 12.8185 4.4908 12.7928 4.44638C12.7671 4.40196 12.7302 4.36511 12.6857 4.33954C12.6412 4.31398 12.5907 4.30061 12.5394 4.30078C12.4881 4.30096 12.4377 4.31467 12.3934 4.34053L9.33203 6.1267" stroke="black" stroke-linecap="round" stroke-linejoin="round"/>
<path d="M8.16797 3.5H2.33464C1.6903 3.5 1.16797 4.02233 1.16797 4.66667V9.33333C1.16797 9.97767 1.6903 10.5 2.33464 10.5H8.16797C8.8123 10.5 9.33464 9.97767 9.33464 9.33333V4.66667C9.33464 4.02233 8.8123 3.5 8.16797 3.5Z" stroke="black" stroke-linecap="round" stroke-linejoin="round"/>
</g>
<defs>
<clipPath id="clip0_2626_31323">
<rect width="14" height="14" fill="white"/>
</clipPath>
</defs>
</svg>
