<svg width="18" height="19" viewBox="0 0 18 19" fill="none" xmlns="http://www.w3.org/2000/svg">
<path d="M9 5.54427C8.58578 5.54427 8.25 5.18983 8.25 4.7526C8.25 4.31538 8.58578 3.96094 9 3.96094C9.41423 3.96094 9.75 4.31538 9.75 4.7526C9.75 5.18983 9.41423 5.54427 9 5.54427Z" stroke="black" stroke-width="1.5" stroke-linecap="round" stroke-linejoin="round"/>
<path d="M9 10.2943C8.58578 10.2943 8.25 9.93984 8.25 9.5026C8.25 9.06537 8.58578 8.71094 9 8.71094C9.41423 8.71094 9.75 9.06537 9.75 9.5026C9.75 9.93984 9.41423 10.2943 9 10.2943Z" stroke="black" stroke-width="1.5" stroke-linecap="round" stroke-linejoin="round"/>
<path d="M9 15.0443C8.58578 15.0443 8.25 14.6898 8.25 14.2526C8.25 13.8154 8.58578 13.4609 9 13.4609C9.41423 13.4609 9.75 13.8154 9.75 14.2526C9.75 14.6898 9.41423 15.0443 9 15.0443Z" stroke="black" stroke-width="1.5" stroke-linecap="round" stroke-linejoin="round"/>
</svg>
