<svg width="18" height="18" viewBox="0 0 18 18" fill="none" xmlns="http://www.w3.org/2000/svg">
<path d="M11.7 3H12.75C13.5784 3 14.25 3.67157 14.25 4.5V15C14.25 15.8284 13.5784 16.5 12.75 16.5H5.25C4.42157 16.5 3.75 15.8284 3.75 15V4.5C3.75 3.67157 4.42157 3 5.25 3H6.3M6.75 4.125L6.05364 2.38411C6.01821 2.29552 5.99557 2.20007 6.01373 2.1064C6.08073 1.76088 6.3849 1.5 6.75 1.5H11.25C11.6151 1.5 11.9193 1.76088 11.9863 2.1064C12.0044 2.20007 11.9818 2.29552 11.9464 2.38411L11.25 4.125H6.75Z" stroke="white" stroke-width="1.5" stroke-linecap="round" stroke-linejoin="round"/>
<path d="M6.75 7.5H11.25" stroke="white" stroke-width="1.5" stroke-linecap="round" stroke-linejoin="round"/>
<path d="M6.75 10.125H11.25M6.75 12.75H9" stroke="white" stroke-width="1.5" stroke-linecap="round" stroke-linejoin="round"/>
</svg>
