<svg width="18" height="18" viewBox="0 0 18 18" fill="none" xmlns="http://www.w3.org/2000/svg">
<path d="M2.25 15.75V12.75C2.25 11.9216 2.92157 11.25 3.75 11.25H9M14.625 14.625L15.75 15.75M12 5.25C12 6.90686 10.6568 8.25 9 8.25C7.34314 8.25 6 6.90686 6 5.25C6 3.59314 7.34314 2.25 9 2.25C10.6568 2.25 12 3.59314 12 5.25ZM15.1875 13.2188C15.1875 14.306 14.306 15.1875 13.2188 15.1875C12.1315 15.1875 11.25 14.306 11.25 13.2188C11.25 12.1315 12.1315 11.25 13.2188 11.25C14.306 11.25 15.1875 12.1315 15.1875 13.2188Z" stroke="white" stroke-width="1.5" stroke-linecap="round" stroke-linejoin="round"/>
</svg>
