<svg width="18" height="18" viewBox="0 0 18 18" fill="none" xmlns="http://www.w3.org/2000/svg">
<g clip-path="url(#clip0_2512_23930)">
<path d="M12 5.25V3C12 2.17157 11.3284 1.5 10.5 1.5H7.5C6.67157 1.5 6 2.17157 6 3V5.25M16.5 9L9.29415 10.4412C9.09998 10.48 8.90002 10.48 8.70585 10.4412L1.5 9M3 16.5H15C15.8284 16.5 16.5 15.8284 16.5 15V6.75C16.5 5.92157 15.8284 5.25 15 5.25H3C2.17157 5.25 1.5 5.92157 1.5 6.75V15C1.5 15.8284 2.17157 16.5 3 16.5Z" stroke="#A9A9A9" stroke-width="1.5" stroke-linecap="round" stroke-linejoin="round"/>
</g>
<defs>
<clipPath id="clip0_2512_23930">
<rect width="18" height="18" fill="white"/>
</clipPath>
</defs>
</svg>
