<svg width="18" height="18" viewBox="0 0 18 18" fill="none" xmlns="http://www.w3.org/2000/svg">
<path d="M16.5 3.88501L7.9425 12.45L4.7625 9.27001L5.82 8.21251L7.9425 10.335L15.4425 2.83501L16.5 3.88501ZM14.8425 7.66501C14.94 8.09251 15 8.54251 15 9.00001C15 12.315 12.315 15 9 15C5.685 15 3 12.315 3 9.00001C3 5.68501 5.685 3.00001 9 3.00001C10.185 3.00001 11.28 3.34501 12.21 3.93751L13.29 2.85751C12.0348 1.97217 10.536 1.49788 9 1.50001C4.86 1.50001 1.5 4.86001 1.5 9.00001C1.5 13.14 4.86 16.5 9 16.5C13.14 16.5 16.5 13.14 16.5 9.00001C16.5 8.10751 16.335 7.25251 16.05 6.45751L14.8425 7.66501Z" fill="#A9A9A9"/>
</svg>
